<svg width="61" height="77" viewBox="0 0 61 77" fill="none" xmlns="http://www.w3.org/2000/svg">
<path fill-rule="evenodd" clip-rule="evenodd" d="M11.6466 0H26.8944L26.9632 25.4899C26.9749 29.8318 30.0416 33.1714 34.1099 33.1223L60.1788 32.8056V64.673C60.1788 71.0309 54.9377 76.2327 48.5322 76.2327H11.6466C5.24071 76.2327 0 71.0309 0 64.673V11.5597C0 5.20175 5.24071 0 11.6466 0V0Z" fill="#4584FF"/>
<path fill-rule="evenodd" clip-rule="evenodd" d="M32.7247 0.346951L59.3322 27.4473C59.2823 27.4964 59.2044 27.5218 59.0967 27.5222L35.1073 27.5993C33.665 27.6038 32.4843 26.4193 32.4843 24.9766V0.369245C32.4843 0.280804 32.5675 0.275896 32.7247 0.346951V0.346951Z" fill="#4584FF"/>
</svg>
