<svg width="20" height="20" viewBox="0 0 20 20" fill="none" xmlns="http://www.w3.org/2000/svg">
<path fill-rule="evenodd" clip-rule="evenodd" d="M10.3045 1.12585C7.75216 1.12585 5.3544 5.21682 5.3544 10.2659C5.3544 15.3138 7.7544 19.4059 10.3056 19.4059C12.8575 19.4059 15.2568 15.3138 15.2568 10.2659C15.2568 5.21795 12.8579 1.12585 10.3067 1.12585H10.3045V1.12585Z" fill="white" stroke="#4584FF" stroke-width="0.748346" stroke-miterlimit="22.9256"/>
<path d="M4.05954 4.22357C5.73954 5.41639 7.85533 6.12733 10.1537 6.12733C12.4516 6.12733 14.5678 5.4164 16.2478 4.22321M16.2474 16.4114C14.5674 15.2186 12.4512 14.5073 10.1533 14.5073C7.85534 14.5073 5.74031 15.2182 4.05917 16.4114" stroke="#4584FF" stroke-width="0.748346" stroke-miterlimit="22.9256" stroke-linecap="round" stroke-linejoin="round"/>
<path d="M10.4043 1.22607V19.5061M19.5439 10.3661H1.26422" stroke="#4584FF" stroke-width="0.748346" stroke-miterlimit="22.9256"/>
<path d="M10.1389 19.4577C15.1862 19.4577 19.2778 15.3258 19.2778 10.2289C19.2778 5.13192 15.1862 1 10.1389 1C5.09165 1 1 5.13192 1 10.2289C1 15.3258 5.09165 19.4577 10.1389 19.4577Z" stroke="#4584FF" stroke-width="0.755906" stroke-miterlimit="22.9256"/>
</svg>
