<svg width="24" height="23" viewBox="0 0 24 23" fill="none" xmlns="http://www.w3.org/2000/svg">
<path d="M11.8504 22.5096C18.0635 22.5096 23.1002 17.4729 23.1002 11.2598C23.1002 5.04678 18.0635 0.0100708 11.8504 0.0100708C5.63732 0.0100708 0.600616 5.04678 0.600616 11.2598C0.600616 17.4729 5.63732 22.5096 11.8504 22.5096Z" fill="#4584FF"/>
<path d="M14.4855 8.18598C14.4855 7.72903 14.3743 7.31066 14.1517 6.93006C13.9291 6.54946 13.6132 6.24784 13.2031 6.02523C12.7934 5.80261 12.3247 5.69149 11.7979 5.69149C10.9312 5.69149 10.2433 5.95227 9.73384 6.47308C9.22436 6.99428 8.96963 7.67084 8.96963 8.50196C8.96963 8.70114 8.90841 8.86215 8.7852 8.98536C8.66236 9.1082 8.50135 9.1698 8.30216 9.1698C8.10298 9.1698 7.93934 9.1082 7.81046 8.98536C7.68157 8.86215 7.61731 8.70114 7.61731 8.50196C7.61731 7.70561 7.7927 6.99731 8.14419 6.37671C8.49531 5.75612 8.98741 5.27007 9.61972 4.91857C10.252 4.56745 10.9781 4.39172 11.7979 4.39172C12.5708 4.39172 13.2647 4.55837 13.8796 4.89211C14.4942 5.22584 14.9745 5.68581 15.32 6.27126C15.6654 6.85671 15.8382 7.51853 15.8382 8.25629C15.8382 8.83002 15.7444 9.33078 15.557 9.75825C15.3695 10.1853 15.1325 10.5633 14.8457 10.891C14.5588 11.2191 14.1517 11.6231 13.6249 12.1031L13.3085 12.3843C12.9808 12.6768 12.7495 13.0196 12.6146 13.4119C12.48 13.8043 12.4128 14.1935 12.4128 14.5798C12.4128 14.779 12.3481 14.946 12.2196 15.0806C12.0907 15.2151 11.9267 15.2828 11.7275 15.2828C11.5284 15.2828 11.3647 15.2151 11.2358 15.0806C11.107 14.946 11.0427 14.779 11.0427 14.5798C11.0427 14.0998 11.1595 13.5903 11.3938 13.0518C11.6281 12.5132 11.9441 12.0562 12.3425 11.6817L12.7816 11.2776C13.1796 10.9027 13.4899 10.5894 13.7125 10.3377C13.9352 10.0859 14.1196 9.78169 14.2659 9.42414C14.4122 9.06698 14.4855 8.65426 14.4855 8.18598V8.18598ZM11.7275 16.3365C12.0087 16.3365 12.2518 16.4363 12.4566 16.6351C12.6615 16.8343 12.7639 17.0804 12.7639 17.3729C12.7639 17.6541 12.6615 17.8941 12.4566 18.0932C12.2518 18.2924 12.0087 18.3918 11.7275 18.3918C11.435 18.3918 11.192 18.2924 10.9985 18.0932C10.8053 17.8941 10.709 17.6541 10.709 17.3729C10.709 17.0804 10.8084 16.8343 11.0076 16.6351C11.2064 16.4363 11.4467 16.3365 11.7275 16.3365V16.3365Z" fill="white"/>
</svg>
