<?xml version="1.0" encoding="UTF-8"?>
<!DOCTYPE svg PUBLIC "-//W3C//DTD SVG 1.1//EN" "http://www.w3.org/Graphics/SVG/1.1/DTD/svg11.dtd">
<!-- Creator: CorelDRAW 2017 -->
<svg xmlns="http://www.w3.org/2000/svg" xml:space="preserve" width="210mm" height="297mm" version="1.1" style="shape-rendering:geometricPrecision; text-rendering:geometricPrecision; image-rendering:optimizeQuality; fill-rule:evenodd; clip-rule:evenodd"
viewBox="0 0 21000 29700"
 xmlns:xlink="http://www.w3.org/1999/xlink">
 <defs>
  <style type="text/css">
   <![CDATA[
    .fil0 {fill:#4584FF}
    .fil1 {fill:white;fill-rule:nonzero}
   ]]>
  </style>
 </defs>
 <g id="Слой_x0020_1">
  <metadata id="CorelCorpID_0Corel-Layer"/>
  <circle class="fil0" cx="10500" cy="14850" r="297.65"/>
  <path class="fil1" d="M10569.72 14768.67c0,-12.09 -2.94,-23.16 -8.83,-33.23 -5.89,-10.07 -14.25,-18.05 -25.1,-23.94 -10.84,-5.89 -23.24,-8.83 -37.18,-8.83 -22.93,0 -41.13,6.9 -54.61,20.68 -13.48,13.79 -20.22,31.69 -20.22,53.68 0,5.27 -1.62,9.53 -4.88,12.79 -3.25,3.25 -7.51,4.88 -12.78,4.88 -5.27,0 -9.6,-1.63 -13.01,-4.88 -3.41,-3.26 -5.11,-7.52 -5.11,-12.79 0,-21.07 4.64,-39.81 13.94,-56.23 9.29,-16.42 22.31,-29.28 39.04,-38.58 16.73,-9.29 35.94,-13.94 57.63,-13.94 20.45,0 38.81,4.41 55.08,13.24 16.26,8.83 28.97,21 38.11,36.49 9.14,15.49 13.71,33 13.71,52.52 0,15.18 -2.48,28.43 -7.44,39.74 -4.96,11.3 -11.23,21.3 -18.82,29.97 -7.59,8.68 -18.36,19.37 -32.3,32.07l-8.37 7.44c-8.67,7.74 -14.79,16.81 -18.36,27.19 -3.56,10.38 -5.34,20.68 -5.34,30.9 0,5.27 -1.71,9.69 -5.11,13.25 -3.41,3.56 -7.75,5.35 -13.02,5.35 -5.27,0 -9.6,-1.79 -13.01,-5.35 -3.41,-3.56 -5.11,-7.98 -5.11,-13.25 0,-12.7 3.09,-26.18 9.29,-40.43 6.2,-14.25 14.56,-26.34 25.1,-36.25l11.62 -10.69c10.53,-9.92 18.74,-18.21 24.63,-24.87 5.89,-6.66 10.77,-14.71 14.64,-24.17 3.87,-9.45 5.81,-20.37 5.81,-32.76zm-72.97 215.65c7.44,0 13.87,2.64 19.29,7.9 5.42,5.27 8.13,11.78 8.13,19.52 0,7.44 -2.71,13.79 -8.13,19.06 -5.42,5.27 -11.85,7.9 -19.29,7.9 -7.74,0 -14.17,-2.63 -19.29,-7.9 -5.11,-5.27 -7.66,-11.62 -7.66,-19.06 0,-7.74 2.63,-14.25 7.9,-19.52 5.26,-5.26 11.62,-7.9 19.05,-7.9z"/>
 </g>
</svg>
