<?xml version="1.0" encoding="UTF-8"?>
<!DOCTYPE svg PUBLIC "-//W3C//DTD SVG 1.1//EN" "http://www.w3.org/Graphics/SVG/1.1/DTD/svg11.dtd">
<!-- Creator: CorelDRAW 2017 -->
<svg xmlns="http://www.w3.org/2000/svg" xml:space="preserve" width="210mm" height="297mm" version="1.1" style="shape-rendering:geometricPrecision; text-rendering:geometricPrecision; image-rendering:optimizeQuality; fill-rule:evenodd; clip-rule:evenodd"
viewBox="0 0 21000 29700"
 xmlns:xlink="http://www.w3.org/1999/xlink">
 <defs>
  <style type="text/css">
   <![CDATA[
    .fil0 {fill:#4584FF}
    .fil1 {fill:#4584FF;fill-rule:nonzero}
    .fil2 {fill:white;fill-rule:nonzero}
   ]]>
  </style>
 </defs>
 <g id="Слой_x0020_1">
  <metadata id="CorelCorpID_0Corel-Layer"/>
  <g id="_1006911312">
   <path class="fil0" d="M9581.83 15563.9c59.44,-188.78 162.86,-277.88 162.86,-277.88l-77.84 4.12c11.37,-30.16 24.42,-56.12 38.77,-78.42 76.3,-118.5 189.25,-133.11 279.81,-119.99 44.18,6.41 83.05,19.42 109.72,30.18 -0.33,0.26 -0.66,0.54 -0.99,0.81 -14.91,-5.16 -33.26,-10.27 -53.38,-13.18 -67.11,-9.73 -153.92,4.96 -198.7,123.75l48.54 -2.57c0,0 -64.5,55.58 -101.58,173.33 123.3,-5.96 193.44,-54.26 193.44,-54.26l-14.81 46.32c172.21,-17.94 176.98,-160.66 170.07,-225.36 0.22,-0.15 0.43,-0.3 0.65,-0.44 11.97,81.54 22.5,298.99 -189.18,364.74 -24.04,7.47 -50.92,12.97 -81.01,16.1l23.08 -72.17 0.67 -2.07c0,0 -0.55,0.38 -1.63,1.08 -14.42,9.36 -124.55,76.99 -308.49,85.91z"/>
   <g>
    <g>
     <path class="fil1" d="M10941.83 14919.95c395.28,-344.07 464.25,-644.54 476.06,-750.21 2.63,-23.48 -13.95,-44.78 -37.36,-47.98 -105.34,-14.44 -413.56,-21.17 -843.98,277.78 0,0 -255.8,176.6 -402.34,476.08l123.74 158.89 123.74 158.9c326.25,-68.72 560.14,-273.46 560.14,-273.46z"/>
    </g>
   </g>
   <g>
    <g>
     <polygon class="fil1" points="10222.06,15226.98 10061.29,15016.61 10153.75,14965.28 10294.47,15149.91 "/>
    </g>
    <g>
     <g>
      <polygon class="fil1" points="10299.52,15205.54 10102.32,14952.32 10200.66,14875.74 10397.85,15128.96 "/>
     </g>
    </g>
   </g>
   <g>
    <g>
     <path class="fil1" d="M10467.22 14552.98l-324.04 -4.44c-42.31,-0.58 -82.99,16.26 -112.5,46.59l-294.56 302.64c-14.44,14.84 -11.86,39.14 5.37,50.61 10.76,7.16 24.65,7.42 35.66,0.65 71.2,-43.8 340.29,-196.65 512.17,-119.63l177.9 -276.42z"/>
    </g>
   </g>
   <g>
    <g>
     <path class="fil1" d="M10780.13 14954.78l-75.07 315.25c-9.81,41.16 -36.11,76.48 -72.74,97.67l-365.58 211.44c-17.92,10.37 -40.85,1.91 -47.75,-17.61 -4.31,-12.18 -1.16,-25.71 8.1,-34.72 59.91,-58.31 274.02,-281.75 241.45,-467.26l311.59 -104.77z"/>
    </g>
   </g>
   <g>
    <g>
     <path class="fil1" d="M9963.91 15294.51l-26.42 -33.93c-5.89,-7.57 -4.65,-18.47 2.79,-24.52l581.68 -472.62c9.46,-7.69 23.4,-6.1 30.89,3.52l40.39 51.86c7.5,9.63 5.62,23.52 -4.15,30.82l-600.72 448.17c-7.69,5.74 -18.56,4.27 -24.46,-3.3z"/>
    </g>
   </g>
   <g>
    <g>
     <path class="fil2" d="M10963.73 14706.47c-74.89,58.32 -182.87,44.89 -241.19,-30 -58.31,-74.88 -44.89,-182.87 30,-241.19 74.89,-58.31 182.87,-44.88 241.19,30 58.32,74.89 44.89,182.87 -30,241.19z"/>
    </g>
    <g>
     <g>
      <path class="fil2" d="M10927.58 14660.05c-48.57,37.82 -118.6,29.12 -156.43,-19.45 -37.82,-48.58 -29.11,-118.61 19.46,-156.44 48.57,-37.82 118.61,-29.11 156.43,19.46 37.82,48.57 29.11,118.61 -19.46,156.43z"/>
     </g>
    </g>
   </g>
  </g>
 </g>
</svg>
