<svg width="70" height="56" viewBox="0 0 70 56" fill="none" xmlns="http://www.w3.org/2000/svg">
<path fill-rule="evenodd" clip-rule="evenodd" d="M0.147919 55.2419C2.39447 48.1069 6.30327 44.7393 6.30327 44.7393L3.36126 44.8951C3.79099 43.7551 4.28424 42.774 4.8266 41.9312C7.71038 37.4524 11.9793 36.9003 15.4021 37.3961C17.0719 37.6384 18.541 38.1301 19.549 38.5368C19.5365 38.5466 19.524 38.5572 19.5116 38.5674C18.948 38.3723 18.2545 38.1792 17.4941 38.0692C14.9576 37.7015 11.6766 38.2567 9.98414 42.7464L11.8187 42.6493C11.8187 42.6493 9.38093 44.7499 7.97948 49.2003C12.6396 48.9751 15.2906 47.1496 15.2906 47.1496L14.7308 48.9002C21.2396 48.2222 21.4199 42.828 21.1587 40.3827C21.167 40.377 21.1749 40.3713 21.1832 40.366C21.6357 43.4479 22.0336 51.6665 14.0331 54.1515C13.1245 54.4338 12.1086 54.6417 10.9714 54.76L11.8437 52.0323L11.869 51.9541C11.869 51.9541 11.8482 51.9685 11.8074 51.9949C11.2624 52.3487 7.09998 54.9048 0.147919 55.2419V55.2419Z" fill="#4584FF"/>
<path d="M51.5495 30.9036C66.4892 17.8994 69.0959 6.54305 69.5423 2.54923C69.6417 1.66179 69.0151 0.856737 68.1303 0.735793C64.1489 0.190029 52.4997 -0.064324 36.2318 11.2346C36.2318 11.2346 26.5638 17.9092 21.0253 29.2282L25.7021 35.2334L30.3789 41.2391C42.7096 38.6418 51.5495 30.9036 51.5495 30.9036V30.9036Z" fill="#4584FF"/>
<path d="M24.3456 42.5079L18.2692 34.5569L21.7638 32.6169L27.0823 39.595L24.3456 42.5079Z" fill="#4584FF"/>
<path d="M27.2732 41.6976L19.82 32.1271L23.5368 29.2327L30.9896 38.8032L27.2732 41.6976Z" fill="#4584FF"/>
<path d="M33.6115 17.0339L21.3643 16.8661C19.7652 16.8442 18.2276 17.4806 17.1123 18.627L5.97934 30.0653C5.43358 30.6262 5.53109 31.5446 6.18231 31.9781C6.58898 32.2488 7.11397 32.2586 7.53009 32.0027C10.2211 30.3473 20.3914 24.5703 26.8877 27.4813L33.6115 17.0339Z" fill="#4584FF"/>
<path d="M45.438 32.22L42.6007 44.135C42.2299 45.6906 41.2359 47.0256 39.8515 47.8265L26.0343 55.8179C25.357 56.2098 24.4903 55.8901 24.2296 55.1523C24.0667 54.692 24.1857 54.1806 24.5357 53.84C26.8 51.6362 34.8923 43.1912 33.6614 36.1798L45.438 32.22V32.22Z" fill="#4584FF"/>
<path d="M14.5887 45.0602L13.5902 43.7778C13.3676 43.4917 13.4144 43.0797 13.6956 42.8511L35.6804 24.9883C36.0379 24.6976 36.5648 24.7577 36.8479 25.1213L38.3744 27.0814C38.6579 27.4454 38.5868 27.9703 38.2176 28.2462L15.5132 45.1849C15.2226 45.4019 14.8117 45.3463 14.5887 45.0602V45.0602Z" fill="#4584FF"/>
<path d="M52.3772 22.8351C49.5467 25.0393 45.4656 24.5317 43.2614 21.7012C41.0575 18.8711 41.5647 14.7896 44.3952 12.5854C47.2257 10.3815 51.3069 10.8891 53.5111 13.7192C55.7153 16.5497 55.2077 20.6308 52.3772 22.8351Z" fill="white"/>
<path d="M51.0109 21.0806C49.1752 22.5101 46.5284 22.1812 45.0986 20.3455C43.6692 18.5094 43.9984 15.8626 45.8341 14.4329C47.6698 13.0034 50.317 13.3326 51.7464 15.1683C53.1758 17.0041 52.8466 19.6512 51.0109 21.0806V21.0806Z" fill="white"/>
</svg>
