<svg width="71" height="71" viewBox="0 0 71 71" fill="none" xmlns="http://www.w3.org/2000/svg">
<circle cx="35.5" cy="35.5" r="34" fill="url(#paint0_linear_1_972)" stroke="#F9F9F9" stroke-width="3"/>
<path fill-rule="evenodd" clip-rule="evenodd" d="M19.3318 45.8626C19.2392 46.6592 19.8098 47.38 20.6064 47.4727L47.7568 50.6298C48.5534 50.7224 49.2743 50.1518 49.3669 49.3552C49.4595 48.5586 48.8889 47.8377 48.0923 47.7451L20.9419 44.5879C20.1453 44.4953 19.4244 45.066 19.3318 45.8626Z" fill="white"/>
<path d="M22.7474 29.0614C23.0743 26.2499 25.6185 24.2357 28.4301 24.5627L45.399 26.5359C48.2106 26.8628 50.2247 29.407 49.8978 32.2186L48.7138 42.3999C48.3869 45.2115 45.8427 47.2256 43.0312 46.8987L26.0622 44.9255C23.2507 44.5985 21.2365 42.0543 21.5635 39.2428L22.7474 29.0614Z" fill="white"/>
<defs>
<linearGradient id="paint0_linear_1_972" x1="-25.7549" y1="-42.8088" x2="181.328" y2="198.382" gradientUnits="userSpaceOnUse">
<stop stop-color="#4584FF"/>
<stop offset="1" stop-color="#4333A6"/>
</linearGradient>
</defs>
</svg>
