<svg width="151" height="54" viewBox="0 0 151 54" fill="none" xmlns="http://www.w3.org/2000/svg">
<path d="M71.348 32H75.6479L71.923 25.575C73.8479 24.6 75.148 22.65 75.148 20.5C75.148 17.175 72.4729 14.5 69.1479 14.5H62.1479V32H66.1479V26.25H68.0479L71.348 32ZM66.1479 18.25H69.1479C70.2479 18.25 71.1479 19.225 71.1479 20.5C71.1479 21.775 70.2479 22.75 69.1479 22.75H66.1479V18.25ZM80.119 27.25H88.994C89.094 26.775 89.144 26.275 89.144 25.75C89.144 21.975 86.444 19.15 82.794 19.15C78.844 19.15 76.144 22.025 76.144 25.75C76.144 29.475 78.794 32.35 83.069 32.35C85.444 32.35 87.294 31.475 88.519 29.775L85.519 28.05C85.019 28.6 84.144 29 83.119 29C81.744 29 80.594 28.55 80.119 27.25ZM80.044 24.45C80.394 23.175 81.344 22.475 82.769 22.475C83.894 22.475 85.019 23 85.419 24.45H80.044ZM97.1489 32.35C99.5989 32.35 101.724 31.075 102.799 29.125L99.5239 27.25C99.1239 28.125 98.1989 28.65 97.0989 28.65C95.4739 28.65 94.2739 27.475 94.2739 25.75C94.2739 24.025 95.4739 22.85 97.0989 22.85C98.1989 22.85 99.0989 23.375 99.5239 24.25L102.799 22.35C101.724 20.425 99.5739 19.15 97.1489 19.15C93.3489 19.15 90.5239 22.025 90.5239 25.75C90.5239 29.475 93.3489 32.35 97.1489 32.35ZM116.305 14.5H103.305V18.35H107.805V32H111.805V18.35H116.305V14.5ZM125.405 32.35C130.43 32.35 134.505 28.4 134.505 23.25C134.505 18.1 130.43 14.15 125.405 14.15C120.38 14.15 116.305 18.1 116.305 23.25C116.305 28.4 120.38 32.35 125.405 32.35ZM125.405 28.45C122.555 28.45 120.305 26.375 120.305 23.25C120.305 20.125 122.555 18.05 125.405 18.05C128.255 18.05 130.505 20.125 130.505 23.25C130.505 26.375 128.255 28.45 125.405 28.45ZM143.382 14.5H136.757V32H140.757V26.5H143.382C146.832 26.5 149.507 23.825 149.507 20.5C149.507 17.175 146.832 14.5 143.382 14.5ZM143.382 22.75H140.757V18.25H143.382C144.607 18.25 145.507 19.225 145.507 20.5C145.507 21.775 144.607 22.75 143.382 22.75Z" fill="white"/>
<path d="M76.275 42.733C76.569 42.877 76.8 43.078 76.968 43.336C77.136 43.594 77.22 43.888 77.22 44.218C77.22 44.722 77.043 45.145 76.689 45.487C76.335 45.829 75.903 46 75.393 46H72.675V39.7H75.195C75.693 39.7 76.11 39.865 76.446 40.195C76.788 40.525 76.959 40.933 76.959 41.419C76.959 41.983 76.731 42.421 76.275 42.733ZM75.195 40.483H73.512V42.409H75.195C75.459 42.409 75.681 42.316 75.861 42.13C76.041 41.944 76.131 41.716 76.131 41.446C76.131 41.182 76.038 40.957 75.852 40.771C75.672 40.579 75.453 40.483 75.195 40.483ZM73.512 45.217H75.393C75.675 45.217 75.912 45.118 76.104 44.92C76.296 44.722 76.392 44.479 76.392 44.191C76.392 43.909 76.293 43.669 76.095 43.471C75.909 43.273 75.675 43.174 75.393 43.174H73.512V45.217ZM81.8835 42.274V41.5H82.6665V46H81.8835V45.226C81.4995 45.82 80.9325 46.117 80.1825 46.117C79.5465 46.117 79.0095 45.889 78.5715 45.433C78.1275 44.971 77.9055 44.41 77.9055 43.75C77.9055 43.096 78.1275 42.538 78.5715 42.076C79.0155 41.614 79.5525 41.383 80.1825 41.383C80.9325 41.383 81.4995 41.68 81.8835 42.274ZM80.2815 45.361C80.7375 45.361 81.1185 45.208 81.4245 44.902C81.7305 44.584 81.8835 44.2 81.8835 43.75C81.8835 43.294 81.7305 42.913 81.4245 42.607C81.1185 42.295 80.7375 42.139 80.2815 42.139C79.8315 42.139 79.4535 42.295 79.1475 42.607C78.8415 42.913 78.6885 43.294 78.6885 43.75C78.6885 44.2 78.8415 44.584 79.1475 44.902C79.4535 45.208 79.8315 45.361 80.2815 45.361ZM89.2348 45.253V41.5H90.0178V46H83.8528V41.5H84.6358V45.253H86.5438V41.5H87.3268V45.253H89.2348ZM94.944 42.274V41.5H95.727V46H94.944V45.226C94.56 45.82 93.993 46.117 93.243 46.117C92.607 46.117 92.07 45.889 91.632 45.433C91.188 44.971 90.966 44.41 90.966 43.75C90.966 43.096 91.188 42.538 91.632 42.076C92.076 41.614 92.613 41.383 93.243 41.383C93.993 41.383 94.56 41.68 94.944 42.274ZM93.342 45.361C93.798 45.361 94.179 45.208 94.485 44.902C94.791 44.584 94.944 44.2 94.944 43.75C94.944 43.294 94.791 42.913 94.485 42.607C94.179 42.295 93.798 42.139 93.342 42.139C92.892 42.139 92.514 42.295 92.208 42.607C91.902 42.913 91.749 43.294 91.749 43.75C91.749 44.2 91.902 44.584 92.208 44.902C92.514 45.208 92.892 45.361 93.342 45.361ZM101.647 41.383C102.277 41.383 102.814 41.614 103.258 42.076C103.702 42.538 103.924 43.096 103.924 43.75C103.924 44.41 103.702 44.971 103.258 45.433C102.82 45.889 102.283 46.117 101.647 46.117C100.903 46.117 100.336 45.82 99.9463 45.226V47.8H99.1633V41.5H99.9463V42.274C100.336 41.68 100.903 41.383 101.647 41.383ZM101.548 45.361C101.998 45.361 102.376 45.208 102.682 44.902C102.988 44.584 103.141 44.2 103.141 43.75C103.141 43.294 102.988 42.913 102.682 42.607C102.376 42.295 101.998 42.139 101.548 42.139C101.092 42.139 100.711 42.295 100.405 42.607C100.099 42.913 99.9463 43.294 99.9463 43.75C99.9463 44.2 100.099 44.584 100.405 44.902C100.711 45.208 101.092 45.361 101.548 45.361ZM109.179 44.11H105.408C105.486 44.506 105.669 44.818 105.957 45.046C106.245 45.268 106.605 45.379 107.037 45.379C107.631 45.379 108.063 45.16 108.333 44.722L108.999 45.1C108.555 45.778 107.895 46.117 107.019 46.117C106.311 46.117 105.729 45.895 105.273 45.451C104.829 44.995 104.607 44.428 104.607 43.75C104.607 43.066 104.826 42.502 105.264 42.058C105.702 41.608 106.269 41.383 106.965 41.383C107.625 41.383 108.162 41.617 108.576 42.085C108.996 42.541 109.206 43.099 109.206 43.759C109.206 43.873 109.197 43.99 109.179 44.11ZM106.965 42.121C106.551 42.121 106.203 42.238 105.921 42.472C105.645 42.706 105.474 43.024 105.408 43.426H108.414C108.348 43.012 108.183 42.691 107.919 42.463C107.655 42.235 107.337 42.121 106.965 42.121ZM110.106 41.5H114.003V46H113.22V42.247H110.889V46H110.106V41.5ZM117.04 45.028L118.336 41.5H119.173L117.337 46.279C117.145 46.789 116.875 47.176 116.527 47.44C116.179 47.71 115.783 47.83 115.339 47.8V47.071C115.885 47.113 116.29 46.813 116.554 46.171L116.626 46.009L114.673 41.5H115.501L117.04 45.028ZM119.349 41.5H123.201V42.256H121.671V46H120.888V42.256H119.349V41.5ZM127.437 42.274V41.5H128.22V46H127.437V45.226C127.053 45.82 126.486 46.117 125.736 46.117C125.1 46.117 124.563 45.889 124.125 45.433C123.681 44.971 123.459 44.41 123.459 43.75C123.459 43.096 123.681 42.538 124.125 42.076C124.569 41.614 125.106 41.383 125.736 41.383C126.486 41.383 127.053 41.68 127.437 42.274ZM125.835 45.361C126.291 45.361 126.672 45.208 126.978 44.902C127.284 44.584 127.437 44.2 127.437 43.75C127.437 43.294 127.284 42.913 126.978 42.607C126.672 42.295 126.291 42.139 125.835 42.139C125.385 42.139 125.007 42.295 124.701 42.607C124.395 42.913 124.242 43.294 124.242 43.75C124.242 44.2 124.395 44.584 124.701 44.902C125.007 45.208 125.385 45.361 125.835 45.361ZM133.187 41.5V45.253H133.925V47.206H133.151V46H129.406V41.5H130.19V45.253H132.404V41.5H133.187ZM135.533 44.659L138.026 41.5H138.656V46H137.882V42.841L135.389 46H134.759V41.5H135.533V44.659ZM141.297 41.5H143.214V46H142.44V44.38H141.783L140.523 46H139.569L140.883 44.335C140.541 44.251 140.265 44.083 140.055 43.831C139.851 43.579 139.749 43.285 139.749 42.949C139.749 42.535 139.896 42.19 140.19 41.914C140.484 41.638 140.853 41.5 141.297 41.5ZM141.324 43.678H142.44V42.229H141.324C141.096 42.229 140.904 42.298 140.748 42.436C140.598 42.568 140.523 42.742 140.523 42.958C140.523 43.168 140.598 43.342 140.748 43.48C140.904 43.612 141.096 43.678 141.324 43.678Z" fill="white"/>
<mask id="mask0_28_382" style="mask-type:alpha" maskUnits="userSpaceOnUse" x="0" y="0" width="35" height="42">
<rect x="16.2441" width="20.3538" height="35.8426" transform="rotate(26.9499 16.2441 0)" fill="#D9D9D9"/>
</mask>
<g mask="url(#mask0_28_382)">
<path d="M22.4899 36.7949H27.9939L23.2259 28.5709C25.6899 27.3229 27.3539 24.8269 27.3539 22.0749C27.3539 17.8189 23.9299 14.3949 19.6739 14.3949H10.7139V36.7949H15.8339V29.4349H18.2659L22.4899 36.7949ZM15.8339 19.1949H19.6739C21.0819 19.1949 22.2339 20.4429 22.2339 22.0749C22.2339 23.7069 21.0819 24.9549 19.6739 24.9549H15.8339V19.1949Z" fill="white"/>
</g>
<mask id="mask1_28_382" style="mask-type:alpha" maskUnits="userSpaceOnUse" x="23" y="22" width="25" height="32">
<rect x="36.6279" y="22" width="12.7037" height="28.6402" transform="rotate(26.9499 36.6279 22)" fill="#D9D9D9"/>
</mask>
<g mask="url(#mask1_28_382)">
<path d="M47.608 28.6H30.9679V33.528H36.7279V51H41.8479V33.528H47.608V28.6Z" fill="white"/>
</g>
<rect width="2.83102" height="30.0307" transform="matrix(-0.893303 -0.449454 -0.449454 0.893303 35.6743 18.2725)" fill="white"/>
<path d="M65.1479 40L66.1149 42.1692L68.4766 42.4184L66.7124 44.0083L67.2052 46.3316L65.1479 45.145L63.0907 46.3316L63.5835 44.0083L61.8193 42.4184L64.181 42.1692L65.1479 40Z" fill="white"/>
<path d="M65.1479 40L66.1149 42.1692L68.4766 42.4184L66.7124 44.0083L67.2052 46.3316L65.1479 45.145L63.0907 46.3316L63.5835 44.0083L61.8193 42.4184L64.181 42.1692L65.1479 40Z" fill="white"/>
</svg>
