<svg width="150" height="40" viewBox="0 0 209 54" fill="none" xmlns="http://www.w3.org/2000/svg">
<path fill-rule="evenodd" clip-rule="evenodd" d="M103.626 42.0805C104.089 42.2978 104.453 42.6012 104.717 42.9901C104.982 43.3796 105.114 43.8231 105.114 44.3211C105.114 45.0811 104.835 45.72 104.278 46.2361C103.72 46.7515 103.04 47.0098 102.238 47.0098H97.9593V37.5039H101.926C102.71 37.5039 103.366 37.7532 103.895 38.251C104.434 38.7489 104.702 39.3641 104.702 40.0976C104.702 40.9489 104.344 41.6094 103.626 42.0805V42.0805ZM101.926 38.6855H99.2765V41.5918H101.926C102.342 41.5918 102.691 41.4514 102.974 41.1702C103.257 40.8897 103.4 40.5458 103.4 40.1386C103.4 39.7399 103.253 39.4007 102.96 39.1203C102.677 38.8303 102.332 38.6855 101.926 38.6855V38.6855ZM99.2765 45.8282H102.238C102.681 45.8282 103.055 45.6789 103.357 45.38C103.659 45.0811 103.81 44.715 103.81 44.2805C103.81 43.8544 103.654 43.4923 103.342 43.1942C103.05 42.8953 102.681 42.746 102.238 42.746H99.2765V45.8282ZM112.455 41.3874V40.2202H113.687V47.0098H112.455V45.8419C111.85 46.7383 110.958 47.186 109.777 47.186C108.776 47.186 107.931 46.8423 107.241 46.1545C106.542 45.4571 106.193 44.6107 106.193 43.615C106.193 42.6278 106.542 41.7861 107.241 41.0893C107.94 40.392 108.785 40.0433 109.777 40.0433C110.958 40.0433 111.85 40.4918 112.455 41.3874V41.3874ZM109.933 46.0455C110.651 46.0455 111.251 45.8145 111.732 45.3531C112.214 44.8731 112.455 44.2937 112.455 43.615C112.455 42.9267 112.214 42.3518 111.732 41.8906C111.251 41.4195 110.651 41.1839 109.933 41.1839C109.224 41.1839 108.629 41.4195 108.148 41.8906C107.666 42.3518 107.425 42.9267 107.425 43.615C107.425 44.2937 107.666 44.8731 108.148 45.3531C108.629 45.8145 109.224 46.0455 109.933 46.0455ZM124.027 45.8825V40.2202H125.26V47.0098H115.555V40.2202H116.787V45.8825H119.791V40.2202H121.024V45.8825H124.027V45.8825ZM133.015 41.3874V40.2202H134.247V47.0098H133.015V45.8419C132.41 46.7383 131.517 47.186 130.337 47.186C129.335 47.186 128.49 46.8423 127.801 46.1545C127.102 45.4571 126.752 44.6107 126.752 43.615C126.752 42.6278 127.102 41.7861 127.801 41.0893C128.499 40.392 129.345 40.0433 130.337 40.0433C131.517 40.0433 132.41 40.4918 133.015 41.3874V41.3874ZM130.492 46.0455C131.21 46.0455 131.81 45.8145 132.292 45.3531C132.774 44.8731 133.015 44.2937 133.015 43.615C133.015 42.9267 132.774 42.3518 132.292 41.8906C131.81 41.4195 131.21 41.1839 130.492 41.1839C129.784 41.1839 129.189 41.4195 128.708 41.8906C128.226 42.3518 127.985 42.9267 127.985 43.615C127.985 44.2937 128.226 44.8731 128.708 45.3531C129.189 45.8145 129.784 46.0455 130.492 46.0455ZM143.566 40.0433C144.557 40.0433 145.403 40.392 146.102 41.0893C146.801 41.7861 147.151 42.6278 147.151 43.615C147.151 44.6107 146.801 45.4571 146.102 46.1545C145.412 46.8423 144.567 47.186 143.566 47.186C142.395 47.186 141.502 46.7383 140.889 45.8419V49.7255H139.656V40.2202H140.889V41.3874C141.502 40.4918 142.395 40.0433 143.566 40.0433ZM143.41 46.0455C144.118 46.0455 144.713 45.8145 145.195 45.3531C145.677 44.8731 145.918 44.2937 145.918 43.615C145.918 42.9267 145.677 42.3518 145.195 41.8906C144.713 41.4195 144.118 41.1839 143.41 41.1839C142.692 41.1839 142.093 41.4195 141.611 41.8906C141.129 42.3518 140.889 42.9267 140.889 43.615C140.889 44.2937 141.129 44.8731 141.611 45.3531C142.093 45.8145 142.692 46.0455 143.41 46.0455ZM155.423 44.1581H149.487C149.609 44.7556 149.897 45.2259 150.351 45.5706C150.804 45.9054 151.371 46.0728 152.051 46.0728C152.986 46.0728 153.666 45.7421 154.091 45.0811L155.14 45.652C154.44 46.6746 153.402 47.186 152.023 47.186C150.908 47.186 149.992 46.8513 149.274 46.1813C148.575 45.4935 148.225 44.6381 148.225 43.615C148.225 42.5827 148.57 41.7321 149.26 41.0619C149.949 40.3828 150.842 40.0433 151.938 40.0433C152.976 40.0433 153.822 40.3964 154.474 41.1025C155.135 41.7908 155.465 42.6325 155.465 43.6287C155.465 43.8004 155.451 43.9771 155.423 44.1581V44.1581ZM151.938 41.1572C151.286 41.1572 150.738 41.3334 150.294 41.6863C149.86 42.0395 149.59 42.5195 149.487 43.1258H154.218C154.114 42.5014 153.855 42.0171 153.439 41.6731C153.024 41.3287 152.523 41.1572 151.938 41.1572V41.1572ZM156.882 40.2202H163.017V47.0098H161.784V41.3471H158.114V47.0098H156.882V40.2202V40.2202ZM167.797 45.5433L169.837 40.2202H171.155L168.265 47.4307C167.963 48.2002 167.538 48.784 166.99 49.1827C166.442 49.5898 165.819 49.7713 165.12 49.7255V48.626C165.979 48.6894 166.617 48.2365 167.032 47.2677L167.146 47.0235L164.071 40.2202H165.375L167.797 45.5433V45.5433ZM171.432 40.2202H177.496V41.3608H175.088V47.0098H173.855V41.3608H171.432V40.2202ZM184.164 41.3874V40.2202H185.396V47.0098H184.164V45.8419C183.56 46.7383 182.667 47.186 181.487 47.186C180.485 47.186 179.64 46.8423 178.951 46.1545C178.252 45.4571 177.902 44.6107 177.902 43.615C177.902 42.6278 178.252 41.7861 178.951 41.0893C179.649 40.392 180.495 40.0433 181.487 40.0433C182.667 40.0433 183.56 40.4918 184.164 41.3874V41.3874ZM181.642 46.0455C182.361 46.0455 182.96 45.8145 183.441 45.3531C183.923 44.8731 184.164 44.2937 184.164 43.615C184.164 42.9267 183.923 42.3518 183.441 41.8906C182.96 41.4195 182.361 41.1839 181.642 41.1839C180.934 41.1839 180.339 41.4195 179.857 41.8906C179.375 42.3518 179.134 42.9267 179.134 43.615C179.134 44.2937 179.375 44.8731 179.857 45.3531C180.339 45.8145 180.934 46.0455 181.642 46.0455ZM193.216 40.2202V45.8825H194.378V48.8295H193.159V47.0098H187.264V40.2202H188.498V45.8825H191.983V40.2202H193.216V40.2202ZM196.908 44.9865L200.833 40.2202H201.825V47.0098H200.606V42.2435L196.682 47.0098H195.69V40.2202H196.908V44.9865ZM205.982 40.2202H209V47.0098H207.782V44.5657H206.747L204.764 47.0098H203.262L205.331 44.4978C204.793 44.3706 204.358 44.1175 204.027 43.737C203.706 43.3567 203.545 42.913 203.545 42.406C203.545 41.7816 203.777 41.261 204.24 40.8447C204.703 40.4283 205.283 40.2202 205.982 40.2202ZM206.025 43.506H207.782V41.3197H206.025C205.666 41.3197 205.363 41.424 205.118 41.6323C204.882 41.8312 204.764 42.0942 204.764 42.4197C204.764 42.7368 204.882 42.9991 205.118 43.2074C205.363 43.407 205.666 43.506 206.025 43.506V43.506Z" fill="white"/>
<path d="M35.7321 3.25255L39.7129 5.17233L18.4655 45.6494L14.4847 43.7296L35.7321 3.25255Z" fill="white"/>
<path fill-rule="evenodd" clip-rule="evenodd" d="M86.1098 37.9568L87.6323 41.2296L91.3498 41.6059L88.5725 44.0045L89.3483 47.51L86.1098 45.7199L82.8715 47.51L83.6473 44.0045L80.8699 41.6059L84.588 41.2296L86.1098 37.9568Z" fill="white"/>
<path fill-rule="evenodd" clip-rule="evenodd" d="M86.1098 37.9568L87.6323 41.2296L91.3498 41.6059L88.5725 44.0045L89.3483 47.51L86.1098 45.7199L82.8715 47.51L83.6473 44.0045L80.8699 41.6059L84.588 41.2296L86.1098 37.9568Z" fill="white"/>
<path fill-rule="evenodd" clip-rule="evenodd" d="M35.5176 20.4799H58.4211L55.1156 28.0156L49.9383 28.0116L49.9604 37.7636L41.5431 53L41.3889 28.0646L32.0996 28.09L35.5176 20.4799Z" fill="white" stroke="white" stroke-width="0.288" stroke-miterlimit="22.9256"/>
<path fill-rule="evenodd" clip-rule="evenodd" d="M20.3381 23.2679L19.326 21.3708C23.1251 19.5267 25.6904 15.839 25.6904 11.7723C25.6904 5.48341 20.4111 0.424438 13.8515 0.424438H0.0382996V33.522H7.93141V24.5832V22.6475H11.6796L16.1722 30.5371L20.3381 23.2679V23.2679ZM7.93141 7.51689H13.8515C16.0208 7.51689 17.7973 9.36125 17.7973 11.7723C17.7973 14.1833 16.0208 16.0269 13.8515 16.0269H7.93141V7.51689V7.51689Z" fill="white"/>
<path fill-rule="evenodd" clip-rule="evenodd" d="M174.051 26.427C179.833 26.427 184.475 22.0915 184.475 16.4746C184.475 10.8569 179.833 6.52142 174.051 6.52142C168.269 6.52142 163.628 10.8569 163.628 16.4746C163.628 22.0915 168.269 26.427 174.051 26.427ZM174.051 20.9231C171.495 20.9231 169.528 19.1512 169.528 16.4746C169.528 13.7975 171.495 12.0261 174.051 12.0261C176.608 12.0261 178.574 13.7975 178.574 16.4746C178.574 19.1512 176.608 20.9231 174.051 20.9231ZM199.571 6.52142C196.937 6.52142 195.009 7.38898 193.712 8.8212V7.04927H187.811V33.4393H193.712V24.1273C195.009 25.5602 196.937 26.427 199.571 26.427C204.724 26.427 208.972 22.0915 208.972 16.4746C208.972 10.8569 204.724 6.52142 199.571 6.52142V6.52142ZM198.392 21.0741C195.678 21.0741 193.712 19.3022 193.712 16.4746C193.712 13.647 195.678 11.875 198.392 11.875C201.106 11.875 203.072 13.647 203.072 16.4746C203.072 19.3022 201.106 21.0741 198.392 21.0741Z" fill="white"/>
<path fill-rule="evenodd" clip-rule="evenodd" d="M96.3363 26.3554H103.017L97.2294 16.7874C100.22 15.3353 102.24 12.4315 102.24 9.22937C102.24 4.27792 98.0839 0.294067 92.9181 0.294067H82.0422V26.3554H88.2567V17.7926H91.2086L96.3363 26.3554ZM88.2567 5.87889H92.9181C94.6271 5.87889 96.0257 7.33102 96.0257 9.22937C96.0257 11.1285 94.6271 12.5801 92.9181 12.5801H88.2567V5.87889V5.87889ZM109.964 19.2816H123.753C123.908 18.5746 123.986 17.83 123.986 17.048C123.986 11.4264 119.791 7.21902 114.12 7.21902C107.983 7.21902 103.788 11.5005 103.788 17.048C103.788 22.595 107.905 26.8767 114.547 26.8767C118.238 26.8767 121.111 25.5737 123.015 23.042L118.354 20.4732C117.577 21.2919 116.218 21.888 114.625 21.888C112.489 21.888 110.702 21.2178 109.964 19.2816V19.2816ZM109.847 15.1118C110.391 13.2132 111.867 12.171 114.081 12.171C115.829 12.171 117.577 12.9527 118.199 15.1118H109.847ZM136.423 26.8767C140.23 26.8767 143.532 24.9782 145.202 22.0739L140.113 19.2816C139.492 20.5852 138.055 21.3668 136.346 21.3668C133.821 21.3668 131.956 19.6171 131.956 17.048C131.956 14.4792 133.821 12.7292 136.346 12.7292C138.055 12.7292 139.453 13.5111 140.113 14.8142L145.202 11.9846C143.532 9.11813 140.191 7.21902 136.423 7.21902C130.519 7.21902 126.13 11.5005 126.13 17.048C126.13 22.595 130.519 26.8767 136.423 26.8767Z" fill="white"/>
<path fill-rule="evenodd" clip-rule="evenodd" d="M165.355 12.5555L165.056 13.753L164.953 13.4205C165.072 13.1244 165.207 12.8362 165.355 12.5555ZM166.186 0.294067H145.988V6.02794H152.979V26.3554H159.194V6.02794H166.186V0.294067V0.294067Z" fill="white"/>
</svg>
