<svg width="145" height="54" viewBox="0 0 145 54" fill="none" xmlns="http://www.w3.org/2000/svg">
<path d="M71.348 32H75.6479L71.923 25.575C73.8479 24.6 75.148 22.65 75.148 20.5C75.148 17.175 72.4729 14.5 69.1479 14.5H62.1479V32H66.1479V26.25H68.0479L71.348 32ZM66.1479 18.25H69.1479C70.2479 18.25 71.1479 19.225 71.1479 20.5C71.1479 21.775 70.2479 22.75 69.1479 22.75H66.1479V18.25ZM80.119 27.25H88.994C89.094 26.775 89.144 26.275 89.144 25.75C89.144 21.975 86.444 19.15 82.794 19.15C78.844 19.15 76.144 22.025 76.144 25.75C76.144 29.475 78.794 32.35 83.069 32.35C85.444 32.35 87.294 31.475 88.519 29.775L85.519 28.05C85.019 28.6 84.144 29 83.119 29C81.744 29 80.594 28.55 80.119 27.25ZM80.044 24.45C80.394 23.175 81.344 22.475 82.769 22.475C83.894 22.475 85.019 23 85.419 24.45H80.044ZM97.1489 32.35C99.5989 32.35 101.724 31.075 102.799 29.125L99.5239 27.25C99.1239 28.125 98.1989 28.65 97.0989 28.65C95.4739 28.65 94.2739 27.475 94.2739 25.75C94.2739 24.025 95.4739 22.85 97.0989 22.85C98.1989 22.85 99.0989 23.375 99.5239 24.25L102.799 22.35C101.724 20.425 99.5739 19.15 97.1489 19.15C93.3489 19.15 90.5239 22.025 90.5239 25.75C90.5239 29.475 93.3489 32.35 97.1489 32.35Z" fill="#0F0F0F"/>
<path d="M116.305 14.5H103.305V18.35H107.805V32H111.805V18.35H116.305V14.5ZM121.685 32.35C125.36 32.35 128.31 29.475 128.31 25.75C128.31 22.025 125.36 19.15 121.685 19.15C118.01 19.15 115.06 22.025 115.06 25.75C115.06 29.475 118.01 32.35 121.685 32.35ZM121.685 28.7C120.06 28.7 118.81 27.525 118.81 25.75C118.81 23.975 120.06 22.8 121.685 22.8C123.31 22.8 124.56 23.975 124.56 25.75C124.56 27.525 123.31 28.7 121.685 28.7ZM137.906 19.15C136.231 19.15 135.006 19.725 134.181 20.675V19.5H130.431V37H134.181V30.825C135.006 31.775 136.231 32.35 137.906 32.35C141.181 32.35 143.881 29.475 143.881 25.75C143.881 22.025 141.181 19.15 137.906 19.15ZM137.156 28.8C135.431 28.8 134.181 27.625 134.181 25.75C134.181 23.875 135.431 22.7 137.156 22.7C138.881 22.7 140.131 23.875 140.131 25.75C140.131 27.625 138.881 28.8 137.156 28.8Z" fill="url(#paint0_linear_28_51)"/>
<path d="M75.9229 43.733C76.2109 43.871 76.4389 44.069 76.6069 44.327C76.7809 44.585 76.8679 44.882 76.8679 45.218C76.8679 45.722 76.6909 46.145 76.3369 46.487C75.9829 46.829 75.5509 47 75.0409 47H72.3229V40.7H74.8429C75.3349 40.7 75.7519 40.865 76.0939 41.195C76.4359 41.525 76.6069 41.933 76.6069 42.419C76.6069 42.977 76.3789 43.415 75.9229 43.733ZM74.8429 41.483H73.1599V43.409H74.8429C75.1069 43.409 75.3289 43.316 75.5089 43.13C75.6889 42.944 75.7789 42.716 75.7789 42.446C75.7789 42.182 75.6859 41.957 75.4999 41.771C75.3199 41.579 75.1009 41.483 74.8429 41.483ZM75.0409 46.217C75.3229 46.217 75.5599 46.118 75.7519 45.92C75.9439 45.722 76.0399 45.479 76.0399 45.191C76.0399 44.909 75.9409 44.669 75.7429 44.471C75.5509 44.273 75.3169 44.174 75.0409 44.174H73.1599V46.217H75.0409ZM81.5314 42.5H82.3144V47H81.5314V46.226C81.1414 46.82 80.5744 47.117 79.8304 47.117C79.2004 47.117 78.6634 46.889 78.2194 46.433C77.7754 45.971 77.5534 45.41 77.5534 44.75C77.5534 44.09 77.7754 43.532 78.2194 43.076C78.6634 42.614 79.2004 42.383 79.8304 42.383C80.5744 42.383 81.1414 42.68 81.5314 43.274V42.5ZM79.9294 46.361C80.3854 46.361 80.7664 46.208 81.0724 45.902C81.3784 45.59 81.5314 45.206 81.5314 44.75C81.5314 44.294 81.3784 43.913 81.0724 43.607C80.7664 43.295 80.3854 43.139 79.9294 43.139C79.4794 43.139 79.1014 43.295 78.7954 43.607C78.4894 43.913 78.3364 44.294 78.3364 44.75C78.3364 45.206 78.4894 45.59 78.7954 45.902C79.1014 46.208 79.4794 46.361 79.9294 46.361ZM88.8827 42.5H89.6657V47H83.5007V42.5H84.2837V46.253H86.1917V42.5H86.9747V46.253H88.8827V42.5ZM94.592 42.5H95.375V47H94.592V46.226C94.202 46.82 93.635 47.117 92.891 47.117C92.261 47.117 91.724 46.889 91.28 46.433C90.836 45.971 90.614 45.41 90.614 44.75C90.614 44.09 90.836 43.532 91.28 43.076C91.724 42.614 92.261 42.383 92.891 42.383C93.635 42.383 94.202 42.68 94.592 43.274V42.5ZM92.99 46.361C93.446 46.361 93.827 46.208 94.133 45.902C94.439 45.59 94.592 45.206 94.592 44.75C94.592 44.294 94.439 43.913 94.133 43.607C93.827 43.295 93.446 43.139 92.99 43.139C92.54 43.139 92.162 43.295 91.856 43.607C91.55 43.913 91.397 44.294 91.397 44.75C91.397 45.206 91.55 45.59 91.856 45.902C92.162 46.208 92.54 46.361 92.99 46.361ZM101.295 42.383C101.925 42.383 102.462 42.614 102.906 43.076C103.35 43.532 103.572 44.09 103.572 44.75C103.572 45.41 103.35 45.971 102.906 46.433C102.462 46.889 101.925 47.117 101.295 47.117C100.551 47.117 99.9843 46.82 99.5943 46.226V48.8H98.8113V42.5H99.5943V43.274C99.9843 42.68 100.551 42.383 101.295 42.383ZM101.196 46.361C101.646 46.361 102.024 46.208 102.33 45.902C102.636 45.59 102.789 45.206 102.789 44.75C102.789 44.294 102.636 43.913 102.33 43.607C102.024 43.295 101.646 43.139 101.196 43.139C100.74 43.139 100.359 43.295 100.053 43.607C99.7473 43.913 99.5943 44.294 99.5943 44.75C99.5943 45.206 99.7473 45.59 100.053 45.902C100.359 46.208 100.74 46.361 101.196 46.361ZM105.056 45.11C105.134 45.512 105.317 45.824 105.605 46.046C105.899 46.268 106.259 46.379 106.685 46.379C107.279 46.379 107.711 46.16 107.981 45.722L108.647 46.1C108.209 46.778 107.549 47.117 106.667 47.117C105.953 47.117 105.371 46.895 104.921 46.451C104.477 46.001 104.255 45.434 104.255 44.75C104.255 44.072 104.474 43.508 104.912 43.058C105.35 42.608 105.917 42.383 106.613 42.383C107.273 42.383 107.81 42.617 108.224 43.085C108.644 43.547 108.854 44.105 108.854 44.759C108.854 44.873 108.845 44.99 108.827 45.11H105.056ZM106.613 43.121C106.193 43.121 105.845 43.241 105.569 43.481C105.293 43.715 105.122 44.03 105.056 44.426H108.062C107.996 44 107.828 43.676 107.558 43.454C107.288 43.232 106.973 43.121 106.613 43.121ZM113.651 42.5V47H112.868V43.247H110.537V47H109.754V42.5H113.651ZM117.984 42.5H118.821L116.985 47.279C116.793 47.789 116.523 48.176 116.175 48.44C115.827 48.71 115.431 48.83 114.987 48.8V48.071C115.539 48.113 115.944 47.813 116.202 47.171L116.274 47.009L114.321 42.5H115.149L116.688 46.028L117.984 42.5ZM122.849 42.5V43.256H121.319V47H120.536V43.256H118.997V42.5H122.849ZM127.085 42.5H127.868V47H127.085V46.226C126.695 46.82 126.128 47.117 125.384 47.117C124.754 47.117 124.217 46.889 123.773 46.433C123.329 45.971 123.107 45.41 123.107 44.75C123.107 44.09 123.329 43.532 123.773 43.076C124.217 42.614 124.754 42.383 125.384 42.383C126.128 42.383 126.695 42.68 127.085 43.274V42.5ZM125.483 46.361C125.939 46.361 126.32 46.208 126.626 45.902C126.932 45.59 127.085 45.206 127.085 44.75C127.085 44.294 126.932 43.913 126.626 43.607C126.32 43.295 125.939 43.139 125.483 43.139C125.033 43.139 124.655 43.295 124.349 43.607C124.043 43.913 123.89 44.294 123.89 44.75C123.89 45.206 124.043 45.59 124.349 45.902C124.655 46.208 125.033 46.361 125.483 46.361ZM132.834 46.253H133.572V48.206H132.798V47H129.054V42.5H129.837V46.253H132.051V42.5H132.834V46.253ZM137.674 42.5H138.304V47H137.53V43.841L135.037 47H134.407V42.5H135.181V45.659L137.674 42.5ZM142.862 42.5V47H142.088V45.38H141.431L140.171 47H139.217L140.531 45.335C140.195 45.251 139.922 45.083 139.712 44.831C139.502 44.579 139.397 44.285 139.397 43.949C139.397 43.535 139.544 43.19 139.838 42.914C140.132 42.638 140.501 42.5 140.945 42.5H142.862ZM140.972 44.678H142.088V43.229H140.972C140.75 43.229 140.561 43.295 140.405 43.427C140.249 43.559 140.171 43.736 140.171 43.958C140.171 44.174 140.249 44.348 140.405 44.48C140.561 44.612 140.75 44.678 140.972 44.678Z" fill="#232323"/>
<mask id="mask0_28_51" style="mask-type:alpha" maskUnits="userSpaceOnUse" x="0" y="0" width="35" height="42">
<rect x="16.2441" width="20.3538" height="35.8426" transform="rotate(26.9499 16.2441 0)" fill="#D9D9D9"/>
</mask>
<g mask="url(#mask0_28_51)">
<path d="M22.4899 36.7947H27.9939L23.2259 28.5707C25.6899 27.3227 27.3539 24.8267 27.3539 22.0747C27.3539 17.8187 23.9299 14.3947 19.6739 14.3947H10.7139V36.7947H15.8339V29.4347H18.2659L22.4899 36.7947ZM15.8339 19.1947H19.6739C21.0819 19.1947 22.2339 20.4427 22.2339 22.0747C22.2339 23.7067 21.0819 24.9547 19.6739 24.9547H15.8339V19.1947Z" fill="#0F0F0F"/>
</g>
<mask id="mask1_28_51" style="mask-type:alpha" maskUnits="userSpaceOnUse" x="23" y="22" width="25" height="32">
<rect x="36.6279" y="22" width="12.7037" height="28.6402" transform="rotate(26.9499 36.6279 22)" fill="#D9D9D9"/>
</mask>
<g mask="url(#mask1_28_51)">
<path d="M47.608 28.6H30.9679V33.528H36.7279V51H41.8479V33.528H47.608V28.6Z" fill="#0F0F0F"/>
</g>
<rect width="2.83102" height="30.0307" transform="matrix(-0.893303 -0.449454 -0.449454 0.893303 35.6743 18.2725)" fill="url(#paint1_linear_28_51)"/>
<path d="M65.1479 40L66.1149 42.1692L68.4766 42.4184L66.7124 44.0083L67.2052 46.3316L65.1479 45.145L63.0907 46.3316L63.5835 44.0083L61.8193 42.4184L64.181 42.1692L65.1479 40Z" fill="#232323"/>
<path d="M65.1479 40L66.1149 42.1692L68.4766 42.4184L66.7124 44.0083L67.2052 46.3316L65.1479 45.145L63.0907 46.3316L63.5835 44.0083L61.8193 42.4184L64.181 42.1692L65.1479 40Z" fill="url(#paint2_linear_28_51)"/>
<defs>
<linearGradient id="paint0_linear_28_51" x1="30.1774" y1="-6.27941" x2="71.0375" y2="141.778" gradientUnits="userSpaceOnUse">
<stop stop-color="#4584FF"/>
<stop offset="1" stop-color="#4333A6"/>
</linearGradient>
<linearGradient id="paint1_linear_28_51" x1="-1.02694" y1="-18.1067" x2="18.1996" y2="-15.9957" gradientUnits="userSpaceOnUse">
<stop stop-color="#4584FF"/>
<stop offset="1" stop-color="#4333A6"/>
</linearGradient>
<linearGradient id="paint2_linear_28_51" x1="59.1087" y1="35.7794" x2="79.5254" y2="59.5588" gradientUnits="userSpaceOnUse">
<stop stop-color="#4584FF"/>
<stop offset="1" stop-color="#4333A6"/>
</linearGradient>
</defs>
</svg>
