<svg width="97" height="97" viewBox="0 0 97 97" fill="none" xmlns="http://www.w3.org/2000/svg">
<circle cx="48.5" cy="48.5" r="47" fill="white" stroke="url(#paint0_linear_28_115)" stroke-width="3"/>
<path fill-rule="evenodd" clip-rule="evenodd" d="M42.3872 30.3334C42.3872 29.2381 43.2752 28.3501 44.3705 28.3501H52.6668C53.7622 28.3501 54.6502 29.2381 54.6502 30.3334C54.6502 31.4288 53.7622 32.3168 52.6668 32.3168H44.3705C43.2752 32.3168 42.3872 31.4288 42.3872 30.3334Z" fill="url(#paint1_linear_28_115)"/>
<path fill-rule="evenodd" clip-rule="evenodd" d="M39.3966 34.4814C36.5512 34.4814 34.3682 37.006 34.7788 39.8215L38.2572 63.6734C38.5915 65.9663 40.5578 67.6666 42.875 67.6666H54.1621C56.4793 67.6666 58.4455 65.9663 58.7799 63.6734L62.2583 39.8215C62.6689 37.0059 60.4858 34.4814 57.6405 34.4814H39.3966ZM43.2203 46.7939C43.1474 46.2836 42.6747 45.9291 42.1644 46.002C41.6541 46.0749 41.2995 46.5476 41.3724 47.0579L43.4465 61.5764C43.5194 62.0867 43.9922 62.4413 44.5025 62.3684C45.0127 62.2955 45.3673 61.8227 45.2944 61.3124L43.2203 46.7939ZM52.5348 62.3684C52.0245 62.2955 51.6699 61.8227 51.7428 61.3125L53.8169 46.7939C53.8898 46.2837 54.3626 45.9291 54.8729 46.002C55.3831 46.0749 55.7377 46.5476 55.6648 47.0579L53.5907 61.5764C53.5178 62.0867 53.0451 62.4413 52.5348 62.3684ZM47.5851 61.4445C47.5851 61.9599 48.0029 62.3778 48.5184 62.3778C49.0339 62.3778 49.4517 61.9599 49.4517 61.4445V46.9259C49.4517 46.4105 49.0339 45.9926 48.5184 45.9926C48.0029 45.9926 47.5851 46.4105 47.5851 46.9259V61.4445Z" fill="url(#paint2_linear_28_115)"/>
<defs>
<linearGradient id="paint0_linear_28_115" x1="-35.1863" y1="-58.4853" x2="247.73" y2="271.029" gradientUnits="userSpaceOnUse">
<stop stop-color="#4584FF"/>
<stop offset="1" stop-color="#4333A6"/>
</linearGradient>
<linearGradient id="paint1_linear_28_115" x1="37.9389" y1="25.9584" x2="43.9744" y2="47.6906" gradientUnits="userSpaceOnUse">
<stop stop-color="#4584FF"/>
<stop offset="1" stop-color="#4333A6"/>
</linearGradient>
<linearGradient id="paint2_linear_28_115" x1="24.7249" y1="14.4727" x2="122.59" y2="109.201" gradientUnits="userSpaceOnUse">
<stop stop-color="#4584FF"/>
<stop offset="1" stop-color="#4333A6"/>
</linearGradient>
</defs>
</svg>
