<svg width="97" height="97" viewBox="0 0 97 97" fill="none" xmlns="http://www.w3.org/2000/svg">
<circle cx="48.5" cy="48.5" r="47" fill="white" stroke="url(#paint0_linear_28_406)" stroke-width="3"/>
<path d="M63.1228 50.1053C65.7001 50.1053 67.8437 52.2226 67.2446 54.7294C66.6996 57.0099 65.7529 59.1883 64.4366 61.1583C62.2506 64.4299 59.1434 66.9799 55.5081 68.4857C51.8728 69.9915 47.8727 70.3854 44.0135 69.6178C40.1543 68.8502 36.6094 66.9554 33.827 64.173C31.0447 61.3907 29.1499 57.8458 28.3823 53.9866C27.6146 50.1274 28.0086 46.1272 29.5144 42.4919C31.0202 38.8567 33.5701 35.7495 36.8418 33.5635C38.8118 32.2472 40.9901 31.3004 43.2707 30.7554C45.7774 30.1564 47.8947 32.2999 47.8947 34.8773V45.4387C47.8947 48.016 49.9841 50.1053 52.5614 50.1053H63.1228Z" fill="url(#paint1_linear_28_406)"/>
<path d="M51.2435 32.7093C51.4361 30.1392 53.7078 28.1599 56.1628 28.9447C59.1329 29.8942 61.8599 31.5357 64.1061 33.7608C66.3524 35.9858 68.0195 38.6972 68.9971 41.6583C69.805 44.1057 67.8473 46.396 65.2791 46.6129L55.5608 47.4339C52.6987 47.6757 50.2996 45.2992 50.5144 42.4349L51.2435 32.7093Z" fill="url(#paint2_linear_28_406)"/>
<defs>
<linearGradient id="paint0_linear_28_406" x1="-35.1863" y1="-58.4853" x2="247.73" y2="271.029" gradientUnits="userSpaceOnUse">
<stop stop-color="#4584FF"/>
<stop offset="1" stop-color="#4333A6"/>
</linearGradient>
<linearGradient id="paint1_linear_28_406" x1="13.7274" y1="6.93071" x2="128.487" y2="140.591" gradientUnits="userSpaceOnUse">
<stop stop-color="#4584FF"/>
<stop offset="1" stop-color="#4333A6"/>
</linearGradient>
<linearGradient id="paint2_linear_28_406" x1="43.7247" y1="17.5078" x2="98.2082" y2="80.9662" gradientUnits="userSpaceOnUse">
<stop stop-color="#4584FF"/>
<stop offset="1" stop-color="#4333A6"/>
</linearGradient>
</defs>
</svg>
