<svg width="97" height="97" viewBox="0 0 97 97" fill="none" xmlns="http://www.w3.org/2000/svg">
<circle cx="48.5" cy="48.5" r="47" fill="white" stroke="url(#paint0_linear_74_1086)" stroke-width="3"/>
<path d="M45.5279 29.522C46.4634 26.6429 50.5365 26.6429 51.472 29.522L54.1128 37.6495C54.5312 38.9371 55.731 39.8089 57.0849 39.8089H65.6307C68.6579 39.8089 69.9166 43.6827 67.4675 45.462L60.5538 50.4851C59.4585 51.2809 59.0002 52.6914 59.4186 53.979L62.0594 62.1065C62.9949 64.9856 59.6996 67.3798 57.2505 65.6004L50.3368 60.5773C49.2415 59.7815 47.7584 59.7815 46.6631 60.5773L39.7494 65.6004C37.3003 67.3798 34.0051 64.9856 34.9406 62.1065L37.5814 53.979C37.9997 52.6914 37.5414 51.2809 36.4461 50.4851L29.5324 45.462C27.0833 43.6827 28.342 39.8089 31.3693 39.8089H39.9151C41.2689 39.8089 42.4688 38.9371 42.8871 37.6495L45.5279 29.522Z" fill="url(#paint1_linear_74_1086)"/>
<defs>
<linearGradient id="paint0_linear_74_1086" x1="-35.1863" y1="-58.4853" x2="247.73" y2="271.029" gradientUnits="userSpaceOnUse">
<stop stop-color="#4584FF"/>
<stop offset="1" stop-color="#4333A6"/>
</linearGradient>
<linearGradient id="paint1_linear_74_1086" x1="13.5386" y1="3.93919" x2="126.029" y2="140.605" gradientUnits="userSpaceOnUse">
<stop stop-color="#4584FF"/>
<stop offset="1" stop-color="#4333A6"/>
</linearGradient>
</defs>
</svg>
