<svg width="97" height="97" viewBox="0 0 97 97" fill="none" xmlns="http://www.w3.org/2000/svg">
<circle cx="48.5" cy="48.5" r="47" fill="white" stroke="url(#paint0_linear_28_135)" stroke-width="3"/>
<path fill-rule="evenodd" clip-rule="evenodd" d="M53.6535 33.6478V32.0834C53.6535 30.7487 52.5715 29.6667 51.2368 29.6667H49.261H47.2852C45.9506 29.6667 44.8686 30.7487 44.8686 32.0834V33.4359C44.8686 35.2836 43.8726 36.9879 42.2627 37.8948C40.7033 38.7732 38.7984 38.7732 37.2391 37.8948L35.2675 36.7842C34.1046 36.1291 32.6109 36.5292 31.9312 37.6779L30.0002 40.9413C29.3205 42.0899 29.7122 43.5521 30.8751 44.2072L34.3022 46.1378C35.3184 46.7103 35.9472 47.7861 35.9472 48.9525C35.9472 50.1189 35.3184 51.1947 34.3022 51.7672L30.8756 53.6975C29.7127 54.3526 29.321 55.8148 30.0007 56.9634L31.9317 60.2268C32.6114 61.3755 34.1051 61.7756 35.268 61.1206L37.2396 60.0099C38.7987 59.1316 40.7034 59.1316 42.2625 60.0099C43.8722 60.9167 44.8681 62.6207 44.8681 64.4682V65.8214C44.8681 67.156 45.95 68.238 47.2847 68.238H51.2363C52.571 68.238 53.6529 67.156 53.6529 65.8214V64.2574C53.6529 62.5405 54.5784 60.957 56.0743 60.1143C57.5232 59.2981 59.2932 59.2981 60.7421 60.1143L62.5284 61.1205C63.6912 61.7756 65.1849 61.3755 65.8646 60.2268L67.7957 56.9634C68.4754 55.8148 68.0837 54.3526 66.9208 53.6975L64.5762 52.3767C63.3398 51.6803 62.5749 50.3715 62.5749 48.9525C62.5749 47.5335 63.3398 46.2247 64.5762 45.5283L66.9213 44.2072C68.0842 43.5521 68.4759 42.0899 67.7962 40.9413L65.8652 37.6779C65.1855 36.5292 63.6918 36.1291 62.5289 36.7841L60.7421 37.7907C59.2933 38.6068 57.5234 38.6068 56.0746 37.7907C54.5789 36.9481 53.6535 35.3646 53.6535 33.6478ZM48.8504 55.3809C52.4008 55.3809 55.2789 52.5027 55.2789 48.9523C55.2789 45.402 52.4008 42.5238 48.8504 42.5238C45.3 42.5238 42.4219 45.402 42.4219 48.9523C42.4219 52.5027 45.3 55.3809 48.8504 55.3809Z" fill="url(#paint1_linear_28_135)"/>
<defs>
<linearGradient id="paint0_linear_28_135" x1="-35.1863" y1="-58.4853" x2="247.73" y2="271.029" gradientUnits="userSpaceOnUse">
<stop stop-color="#4584FF"/>
<stop offset="1" stop-color="#4333A6"/>
</linearGradient>
<linearGradient id="paint1_linear_28_135" x1="15.7141" y1="6.41054" x2="128.261" y2="137.128" gradientUnits="userSpaceOnUse">
<stop stop-color="#4584FF"/>
<stop offset="1" stop-color="#4333A6"/>
</linearGradient>
</defs>
</svg>
