<svg width="71" height="71" viewBox="0 0 71 71" fill="none" xmlns="http://www.w3.org/2000/svg">
<circle cx="35.5" cy="35.5" r="34" fill="url(#paint0_linear_13_1115)" stroke="#F9F9F9" stroke-width="3"/>
<path d="M31.6418 51.4525L47.6468 47.164C50.843 46.3076 51.0771 41.8619 47.9885 40.6746L46.3145 40.0311C44.9664 39.5129 43.4889 39.4351 42.094 39.8089L32.7732 42.3064C31.3782 42.6802 30.1375 43.4863 29.2292 44.6091L28.1013 46.0034C26.0201 48.5759 28.4456 52.3089 31.6418 51.4525Z" fill="white"/>
<path d="M40.9393 27.7381C41.9161 31.3835 39.7528 35.1304 36.1074 36.1072C32.4621 37.084 28.7151 34.9206 27.7383 31.2753C26.7616 27.6299 28.9249 23.883 32.5702 22.9062C36.2156 21.9294 39.9625 24.0928 40.9393 27.7381Z" fill="white"/>
<defs>
<linearGradient id="paint0_linear_13_1115" x1="-25.7549" y1="-42.8088" x2="181.328" y2="198.382" gradientUnits="userSpaceOnUse">
<stop stop-color="#4584FF"/>
<stop offset="1" stop-color="#4333A6"/>
</linearGradient>
</defs>
</svg>
